<?xml version="1.0" standalone="no"?>
<svg xmlns:xlink="http://www.w3.org/1999/xlink" id="wave" style="transform:rotate(180deg); transition: 0.3s" viewBox="0 0 1440 190" version="1.1" xmlns="http://www.w3.org/2000/svg"><defs><linearGradient id="sw-gradient-0" x1="0" x2="0" y1="1" y2="0"><stop stop-color="rgba(36, 41, 47, 1)" offset="0%"/><stop stop-color="rgba(45, 164, 78, 1)" offset="100%"/></linearGradient></defs><path style="transform:translate(0, 0px); opacity:1" fill="url(#sw-gradient-0)" d="M0,114L120,101.3C240,89,480,63,720,63.3C960,63,1200,89,1440,110.8C1680,133,1920,152,2160,142.5C2400,133,2640,95,2880,91.8C3120,89,3360,120,3600,136.2C3840,152,4080,152,4320,145.7C4560,139,4800,127,5040,129.8C5280,133,5520,152,5760,158.3C6000,165,6240,158,6480,155.2C6720,152,6960,152,7200,152C7440,152,7680,152,7920,126.7C8160,101,8400,51,8640,41.2C8880,32,9120,63,9360,66.5C9600,70,9840,44,10080,47.5C10320,51,10560,82,10800,101.3C11040,120,11280,127,11520,107.7C11760,89,12000,44,12240,22.2C12480,0,12720,0,12960,25.3C13200,51,13440,101,13680,126.7C13920,152,14160,152,14400,155.2C14640,158,14880,165,15120,155.2C15360,146,15600,120,15840,117.2C16080,114,16320,133,16560,120.3C16800,108,17040,63,17160,41.2L17280,19L17280,190L17160,190C17040,190,16800,190,16560,190C16320,190,16080,190,15840,190C15600,190,15360,190,15120,190C14880,190,14640,190,14400,190C14160,190,13920,190,13680,190C13440,190,13200,190,12960,190C12720,190,12480,190,12240,190C12000,190,11760,190,11520,190C11280,190,11040,190,10800,190C10560,190,10320,190,10080,190C9840,190,9600,190,9360,190C9120,190,8880,190,8640,190C8400,190,8160,190,7920,190C7680,190,7440,190,7200,190C6960,190,6720,190,6480,190C6240,190,6000,190,5760,190C5520,190,5280,190,5040,190C4800,190,4560,190,4320,190C4080,190,3840,190,3600,190C3360,190,3120,190,2880,190C2640,190,2400,190,2160,190C1920,190,1680,190,1440,190C1200,190,960,190,720,190C480,190,240,190,120,190L0,190Z"/></svg>